#!OML:ASF G:\JayActor3\Patient Classification 1\Patient 1\Session 6\male.ASF
:FULLY-SPECIFIED
:DEGREES
1497
root -5.08967 16.3784 -1.51085 1260.51 -74.4296 -1266.21
lowerback 4.42816 -0.413503 5.4917
upperback 3.92969 -0.596758 2.95832
thorax 1.55679 -0.291807 -0.0135698
lowerneck 11.0684 -5.80312 1.55854
upperneck -8.01339 -7.76415 -2.04809
head -4.33909 -3.75756 -0.335894
rclavicle -4.70126e-014 -1.43125e-014
rhumerus -29.6767 -12.3986 -70.0185
rradius 41.4778
rwrist -8.72436
rhand -26.3679 -12.3992
rfingers 7.12502
rthumb 0.190433 -42.3788
lclavicle -4.70126e-014 -1.43125e-014
lhumerus -56.2469 38.2879 58.848
lradius 13.5776
lwrist 15.0536
lhand -9.45977 13.6164
lfingers 7.12502
lthumb 16.5038 42.9345
rfemur -8.56955 -1.76966 19.724
rtibia 38.5894
rfoot -31.3658 -22.3566
rtoes 7.7217
lfemur -9.4567 10.2549 -8.63893
ltibia 46.419
lfoot -8.80151 -10.8432
ltoes -19.3119
1498
root -5.10363 16.3903 -1.48707 1260.25 -74.0349 -1265.84
lowerback 4.14999 -0.36847 5.59816
upperback 3.84857 -0.548955 2.99224
thorax 1.63009 -0.264173 -0.0413019
lowerneck 10.8032 -5.72335 1.6592
upperneck -7.75669 -7.65528 -2.20167
head -4.22515 -3.70315 -0.41841
rclavicle 5.62561e-014 -5.40694e-014
rhumerus -29.7411 -12.1794 -70.4184
rradius 41.5816
rwrist -8.40735
rhand -25.8167 -12.5433
rfingers 7.12502
rthumb 0.722792 -42.5219
lclavicle 5.62561e-014 -5.40694e-014
lhumerus -56.282 38.2197 58.7252
lradius 13.5852
lwrist 15.0856
lhand -9.19176 13.7114
lfingers 7.12502
lthumb 16.7618 43.0078
rfemur -8.53194 -1.53669 19.7019
rtibia 38.3101
rfoot -31.161 -22.1158
rtoes 7.79873
lfemur -9.04666 10.4151 -8.86732
ltibia 46.0907
lfoot -8.79995 -11.2555
ltoes -19.2466
1499
root -5.11696 16.3998 -1.4639 1260.07 -73.6066 -1265.54
lowerback 3.90419 -0.32328 5.65811
upperback 3.74951 -0.498209 3.02342
thorax 1.66701 -0.236769 -0.0455015
lowerneck 10.5771 -5.63756 1.79593
upperneck -7.17456 -7.52574 -2.31883
head -4.46555 -3.64737 -0.554851
rclavicle -1.88845e-014 -5.725e-014
rhumerus -29.8168 -11.9299 -70.8188
rradius 41.6704
rwrist -8.03018
rhand -25.2035 -12.7342
rfingers 7.12502
rthumb 1.31504 -42.7099
lclavicle -1.88845e-014 -5.725e-014
lhumerus -56.2835 38.1102 58.647
lradius 13.6103
lwrist 15.1643
lhand -8.96391 13.8219
lfingers 7.12502
lthumb 16.9812 43.0996
rfemur -8.54613 -1.29618 19.662
rtibia 38.0986
rfoot -30.9654 -21.8609
rtoes 7.86469
lfemur -8.60468 10.6236 -9.10417
ltibia 45.6477
lfoot -8.71656 -11.4425
ltoes -19.0995
1500
root -5.12962 16.4069 -1.44114 1259.97 -73.1475 -1265.32
lowerback 3.68755 -0.280762 5.67258
upperback 3.63381 -0.448288 3.05303
thorax 1.6704 -0.211442 -0.0255576
lowerneck 10.3609 -5.53827 1.90186
upperneck -6.93004 -7.39054 -2.48375
head -4.34344 -3.57958 -0.648936
rclavicle -4.82053e-014 0
rhumerus -29.9085 -11.6576 -71.2167
rradius 41.7503
rwrist -7.59689
rhand -24.5336 -12.9412
rfingers 7.12502
rthumb 1.96205 -42.9119
lclavicle -4.82053e-014 0
lhumerus -56.2647 37.9678 58.6001
lradius 13.6532
lwrist 15.2703
lhand -8.77469 13.9391
lfingers 7.12502
lthumb 17.1633 43.2011
rfemur -8.61115 -1.05517 19.6032
rtibia 37.9577
rfoot -30.7787 -21.5893
rtoes 7.91861
lfemur -8.13195 10.8726 -9.34885
ltibia 45.092
lfoot -8.52964 -11.4161
ltoes -18.8921
1501
root -5.14176 16.4116 -1.41859 1259.93 -72.6621 -1265.17
lowerback 3.49782 -0.24591 5.64107
upperback 3.50849 -0.40657 3.08367
thorax 1.64846 -0.191767 0.0215063
lowerneck 10.1846 -5.42531 2.01375
upperneck -6.70062 -7.23769 -2.66543
head -4.23578 -3.50204 -0.748817
rclavicle 2.08724e-015 7.15625e-014
rhumerus -29.9997 -11.3586 -71.6128
rradius 41.8123
rwrist -7.12687
rhand -23.8498 -13.086
rfingers 7.12502
rthumb 2.62246 -43.0496
lclavicle 2.08724e-015 7.15625e-014
lhumerus -56.2237 37.7979 58.595
lradius 13.7193
lwrist 15.4144
lhand -8.62032 14.0485
lfingers 7.12502
lthumb 17.3119 43.2975
rfemur -8.72045 -0.817342 19.5232
rtibia 37.8877
rfoot -30.6008 -21.3004
rtoes 7.95614
lfemur -7.62598 11.1414 -9.60407
ltibia 44.4258
lfoot -8.22283 -11.2299
ltoes -18.6017
